<svg width="123" height="31" fill="none" xmlns="http://www.w3.org/2000/svg"><path d="M6.632.876H.656V30h5.976V.876Zm12.664 23.292V.876h-6.444V30h20.664v-5.832h-14.22Z" fill="#125AC7"/><path d="M51.343 12.756 62.287.876H55.16L44.071 12.972V.876h-6.12V30h6.12v-9.324l3.168-3.456L56.383 30h7.2l-12.24-17.244ZM78.328.264c-7.596 0-13.86 5.436-13.86 15.156 0 9.936 6.264 15.12 13.86 15.12 7.596 0 13.896-5.148 13.896-15.12 0-9.54-5.94-15.156-13.896-15.156Zm0 24.264c-4.32 0-7.596-2.844-7.596-9.108 0-6.228 3.312-9.108 7.596-9.108 4.32 0 7.596 2.88 7.596 9.108 0 6.264-3.24 9.108-7.596 9.108Zm37.174-5.652c3.42-1.296 5.616-4.896 5.616-8.604 0-4.824-3.888-9.396-10.224-9.396H97.43V30h6.444V19.524h5.328L114.962 30h7.416l-6.876-11.124Zm-11.628-5.004V6.528h7.524c2.232 0 4.068 1.476 4.068 3.744 0 2.232-1.836 3.6-4.068 3.6h-7.524Z" fill="#fff"/></svg>