<svg width="795" height="120" fill="none" xmlns="http://www.w3.org/2000/svg"><path d="M80.958 86h6.56V21.28h-6.56v26.88h-36.8V21.28h-6.56V86h6.56V54.4h36.8V86Zm56.272-18.56L143.87 86h7.04l-24.24-64.72h-7.36L95.15 86h6.88l6.64-18.56h28.56Zm-14.24-40.08 12 33.76h-24.08l12.08-33.76Zm47.958 28.8c12.8 0 16.16-5.28 16.16-5.28V86h6.64V21.28h-6.64v15.28c0 9.04-6 13.12-16.16 13.12-9.84 0-16.24-4.08-16.24-13.12V21.28h-6.56v18.48c0 11.28 10.24 16.4 22.8 16.4Zm72.448 11.28 6.64 18.56h7.04l-24.24-64.72h-7.36L201.316 86h6.88l6.64-18.56h28.56Zm-14.24-40.08 12 33.76h-24.08l12.08-33.76Zm83.494.24v-6.32h-60.72v6.32h27.04V86h6.56V27.6h27.12Zm34.074 22.16h-20.24V21.28h-6.48V86h25.36c14.96 0 21.44-6.32 21.44-18.48 0-8.4-7.36-17.76-20.08-17.76Zm-.16 29.92h-20.08v-23.6h19.92c8.8 0 13.92 5.84 13.92 12.4 0 8.08-5.6 11.2-13.76 11.2Zm105.7 6.32h6.56V21.28h-49.92V86h6.56V27.6h36.8V86Zm44.752-64.72h-26.24V86h6.64V59.12h19.68c13.84 0 21.12-9.44 21.12-18.72s-7.44-19.12-21.2-19.12Zm1.28 31.28h-20.88V27.84h20.88c6.24 0 13.44 4.24 13.44 12.56 0 8.16-7.12 12.16-13.44 12.16Zm56.733-32.64c-8.48 0-16.08 3.04-21.52 8.56-5.84 6-8.96 14.72-8.96 25.12 0 20.48 11.92 33.68 30.48 33.68 14.72 0 30.48-8.8 30.48-33.68 0-20.8-12-33.68-30.48-33.68Zm0 60.8c-11.76 0-23.92-7.04-23.92-27.12 0-19.44 12.16-27.12 23.92-27.12 11.68 0 23.84 6.96 23.84 27.12 0 17.36-8.88 27.12-23.84 27.12Zm46.752-53.12h36.96v-6.32h-43.44V86h43.44v-6.24h-36.96V54.32l31.12.16v-6.32h-31.12V27.6Zm51.95 29.52V21.28h-6.48V86h6.48V66.8l13.28-14.48L690.451 86h7.92l-26.88-38.56 23.92-26.16h-8.88l-32.8 35.84ZM762 27.6v-6.32h-60.72v6.32h27.04V86h6.56V27.6H762Z" fill="#fff"/></svg>